<?xml version="1.0" encoding="UTF-8"?>
<svg xmlns="http://www.w3.org/2000/svg" xmlns:xlink="http://www.w3.org/1999/xlink" version="1.1" viewBox="0 0 1920 1080">
  <defs>
    <style>
      .cls-1, .cls-2 { fill-rule: evenodd; }
      .cls-3 { fill: #111; }
      .cls-2 { fill: #C8F031; }
    </style>
  </defs>
  <rect width="1920" height="1080" class="cls-3"/>
  <g transform="translate(550, 75)">
    <path class="cls-2" d="M52.4833 24.3047C50.7042 23.2344 48.6271 22.3177 46.1667 21.4583C48.625 20.5964 50.7042 19.6823 52.4833 18.612C56.2792 16.3307 58.7083 13.3255 60.5563 8.54948C61.4146 6.32552 62.1458 3.72135 62.8333 0.625C63.5208 3.72135 64.25 6.32813 65.1104 8.54948C66.9583 13.3281 69.3875 16.3307 73.1833 18.612C74.9604 19.6823 77.0396 20.5964 79.5 21.4583C77.0417 22.3203 74.9625 23.2344 73.1833 24.3047C69.3875 26.5885 66.9583 29.5911 65.1104 34.3672C64.2521 36.5911 63.5187 39.1953 62.8333 42.2917C62.1458 39.1953 61.4167 36.5885 60.5563 34.3672C58.7083 29.5885 56.2792 26.5859 52.4833 24.3047ZM60.1708 24.6849C59.1882 23.4716 58.1066 22.3901 56.9437 21.4583C58.1074 20.5258 59.1897 19.4436 60.1729 18.2292C61.1748 16.9804 62.0667 15.601 62.8333 14.1146C63.599 15.6042 64.4917 16.9855 65.4958 18.2344C66.4833 19.4583 67.5583 20.5208 68.7229 21.4609C67.5593 22.3934 66.477 23.4757 65.4937 24.6901C64.492 25.938 63.6001 27.3165 62.8333 28.8021C62.0663 27.3137 61.1737 25.9325 60.1708 24.6823M11.3833 60.6875C9.12121 59.6428 6.82471 58.7184 4.5 57.9167C6.82471 57.1149 9.12121 56.1905 11.3833 55.1458C21.9729 50.1823 27.4396 43.487 31.45 30.1146C32.2893 27.2709 33.0289 24.3827 33.6667 21.4583C34.3044 24.3827 35.044 27.2709 35.8833 30.1146C39.8937 43.487 45.3625 50.1823 55.95 55.1458C58.0375 56.125 60.3208 57.0365 62.8333 57.9167C60.5086 58.7184 58.2121 59.6428 55.95 60.6875C45.3604 65.651 39.8937 72.3464 35.8833 85.7187C35.044 88.5625 34.3044 91.4506 33.6667 94.375C33.0289 91.4506 32.2893 88.5625 31.45 85.7187C27.4396 72.3464 21.9708 65.651 11.3833 60.6875ZM26.8063 66.3385C24.0083 62.8646 20.7313 60.1667 16.8792 57.9167C20.7313 55.6667 24.0083 52.9688 26.8063 49.4974C29.6292 45.9948 31.8312 41.8672 33.6667 36.9766C35.5 41.8672 37.7042 45.9948 40.5271 49.4974C43.325 52.9688 46.6021 55.6667 50.4542 57.9167C46.6021 60.1667 43.325 62.8646 40.5271 66.3359C37.7042 69.8385 35.5021 73.9661 33.6667 78.8568C31.8333 73.9661 29.6292 69.8385 26.8063 66.3385Z"/>
  </g>
</svg>