<svg width="114" height="109" viewBox="0 0 114 109" fill="none" xmlns="http://www.w3.org/2000/svg">
<path d="M43.5747 94.831L38.8622 105.18L32.3739 102.225L32.986 100.881L37.9128 103.125L39.3487 99.9716L34.7604 97.8822L35.3702 96.5431L39.9584 98.6325L41.4012 95.4641L36.4137 93.193L37.0258 91.8488L43.5747 94.831Z" fill="white"/>
<path d="M20.7575 89.5847C20.4315 90.0012 20.3206 90.4629 20.4246 90.9698C20.5261 91.4793 20.8093 91.9622 21.2742 92.4187C21.6069 92.7455 21.9467 92.9753 22.2934 93.1083C22.6376 93.2439 22.9665 93.2867 23.2801 93.2367C23.5885 93.1868 23.8556 93.0469 24.0812 92.8172C24.2705 92.6244 24.389 92.4139 24.4367 92.1857C24.4817 91.955 24.4769 91.7194 24.4224 91.4791C24.3626 91.2388 24.278 91.0027 24.1685 90.7707C24.0565 90.5414 23.9407 90.3291 23.8212 90.1339L23.2311 89.1499C23.0345 88.8323 22.8533 88.4858 22.6876 88.1104C22.5219 87.735 22.4097 87.3447 22.3511 86.9395C22.2924 86.5343 22.3202 86.131 22.4343 85.7294C22.5458 85.3253 22.7805 84.941 23.1384 84.5765C23.5896 84.117 24.1092 83.8256 24.697 83.7025C25.2822 83.5767 25.9004 83.6313 26.5517 83.8662C27.2004 84.0985 27.8417 84.5258 28.4755 85.1483C29.083 85.7448 29.5139 86.3573 29.7683 86.9858C30.0227 87.6143 30.1016 88.2287 30.005 88.829C29.9058 89.4319 29.6295 89.9907 29.1761 90.5052L27.948 89.2993C28.2121 88.9828 28.3569 88.6451 28.3824 88.2863C28.4027 87.9275 28.3288 87.5721 28.1607 87.2203C27.9873 86.8685 27.7435 86.5383 27.4292 86.2297C27.0832 85.8899 26.7224 85.6419 26.3466 85.4857C25.9656 85.3295 25.6013 85.2726 25.2535 85.315C24.9032 85.3601 24.5984 85.5147 24.339 85.7788C24.103 86.0192 23.9785 86.2834 23.9654 86.5714C23.9497 86.8569 24.0087 87.1639 24.1426 87.4925C24.2738 87.8185 24.4471 88.1624 24.6624 88.5243L25.3644 89.7272C25.8404 90.5422 26.1 91.3081 26.1431 92.0249C26.1837 92.7391 25.9264 93.3788 25.3714 93.944C24.9124 94.4115 24.3849 94.6951 23.789 94.7948C23.1931 94.8944 22.5839 94.828 21.9615 94.5955C21.3364 94.3656 20.7518 93.9835 20.2077 93.4493C19.6584 92.9098 19.2684 92.3375 19.0377 91.7323C18.8045 91.1246 18.7323 90.5324 18.8213 89.9557C18.9077 89.3816 19.1596 88.8715 19.5769 88.4254L20.7575 89.5847Z" fill="white"/>
<path d="M12.8825 81.9133L11.5437 82.5368L7.82832 74.5589L9.1672 73.9354L10.6651 77.1517L19.6345 72.9746L20.3565 74.5249L11.387 78.702L12.8825 81.9133Z" fill="white"/>
<path d="M15.7033 54.5145L14.4711 54.3458L11.0434 49.9926C10.67 49.5267 10.3401 49.1397 10.0535 48.8314C9.76377 48.519 9.48125 48.2767 9.20594 48.1045C8.93063 47.9323 8.62794 47.8236 8.29788 47.7784C7.9238 47.7272 7.58902 47.771 7.29353 47.9099C6.99436 48.0482 6.75059 48.2596 6.56221 48.5439C6.37016 48.8277 6.24802 49.1603 6.19578 49.5417C6.14054 49.9451 6.17484 50.3085 6.29869 50.6318C6.42254 50.9551 6.62377 51.2181 6.9024 51.4206C7.18103 51.6232 7.52205 51.7521 7.92546 51.8073L7.70322 53.4301C7.01741 53.3362 6.43939 53.0964 5.96915 52.7107C5.49891 52.325 5.16026 51.8377 4.95321 51.2489C4.74249 50.6597 4.6851 50.0148 4.78102 49.3143C4.87796 48.6065 5.10453 48.0024 5.46075 47.5019C5.81381 46.9973 6.25323 46.626 6.77901 46.3879C7.30112 46.1493 7.86474 46.0714 8.46986 46.1543C8.88794 46.2116 9.28606 46.3464 9.66421 46.5588C10.0429 46.7676 10.4515 47.0982 10.8902 47.5506C11.3253 48.0025 11.8442 48.619 12.4471 49.4002L14.4839 51.9601L14.5664 51.9714L15.2611 46.8994L16.7188 47.0991L15.7033 54.5145Z" fill="white"/>
<path d="M20.6644 37.1173C20.252 37.8917 19.6979 38.4469 19.0018 38.783C18.3058 39.1191 17.493 39.2283 16.5633 39.1107C15.6336 38.9931 14.6219 38.646 13.5282 38.0696C12.4377 37.4948 11.5829 36.858 10.9637 36.1593C10.3463 35.4572 9.97949 34.7241 9.86341 33.96C9.74905 33.1925 9.89468 32.4241 10.3003 31.6545C10.7059 30.885 11.2583 30.333 11.9576 29.9987C12.6537 29.6626 13.4649 29.5525 14.3913 29.6683C15.3162 29.7792 16.3238 30.1221 17.4142 30.6968C18.5112 31.275 19.371 31.9144 19.9934 32.6149C20.6126 33.3137 20.9819 34.046 21.1012 34.8119C21.2173 35.576 21.0717 36.3445 20.6644 37.1173ZM19.3529 36.426C19.7119 35.7449 19.66 35.0376 19.1972 34.3041C18.7361 33.5673 17.8769 32.8676 16.6194 32.2048C15.7844 31.7646 15.0321 31.4811 14.3626 31.3542C13.6915 31.2222 13.1207 31.2414 12.6501 31.4118C12.178 31.5772 11.8237 31.8842 11.5872 32.3328C11.2299 33.0107 11.2835 33.7189 11.7478 34.4574C12.2122 35.1959 13.0705 35.8973 14.323 36.5616C15.1613 37.0035 15.916 37.2904 16.5871 37.4223C17.2566 37.5493 17.8258 37.5292 18.2946 37.3621C18.7602 37.1932 19.113 36.8812 19.3529 36.426Z" fill="white"/>
<path d="M29.2622 25.879C28.61 26.4656 27.8994 26.7979 27.1304 26.8758C26.3614 26.9536 25.5602 26.7783 24.7267 26.3499C23.8933 25.9215 23.0613 25.2494 22.2306 24.3337C21.4024 23.4207 20.8169 22.53 20.4739 21.6616C20.1337 20.7908 20.0398 19.9765 20.192 19.2187C20.3469 18.4584 20.7465 17.786 21.3908 17.2016C22.0351 16.6171 22.743 16.2874 23.5145 16.2122C24.2835 16.1344 25.0834 16.3083 25.9144 16.734C26.7456 17.1545 27.5753 17.8212 28.4035 18.7342C29.2366 19.6526 29.8259 20.5474 30.1713 21.4185C30.5142 22.2869 30.6108 23.1014 30.4611 23.8619C30.3089 24.6197 29.9093 25.292 29.2622 25.879ZM28.2662 24.7809C28.8365 24.2636 29.0296 23.5812 28.8455 22.7337C28.6641 21.8836 28.0959 20.9322 27.1409 19.8794C26.5067 19.1803 25.8967 18.6566 25.311 18.3084C24.7255 17.9549 24.1825 17.7778 23.682 17.777C23.1818 17.771 22.7438 17.9383 22.3682 18.2791C21.8007 18.7939 21.6089 19.4777 21.7927 20.3304C21.9765 21.1832 22.5433 22.1359 23.4931 23.1884C24.1298 23.8903 24.7409 24.4179 25.3264 24.7714C25.9122 25.1196 26.4539 25.2954 26.9517 25.2987C27.4469 25.2992 27.8851 25.1266 28.2662 24.7809Z" fill="white"/>
<path d="M36.5905 7.47942C37.0614 7.2911 37.559 7.18782 38.0833 7.16958C38.6077 7.15135 39.1309 7.25754 39.6529 7.48815C40.1784 7.71737 40.683 8.11103 41.1669 8.66912C41.6527 9.22238 42.0933 9.97807 42.4886 10.9362C42.8651 11.858 43.1078 12.7165 43.2167 13.5117C43.3242 14.3035 43.3056 15.0168 43.1611 15.6516C43.0199 16.285 42.7568 16.8303 42.3718 17.2875C41.9867 17.7447 41.4875 18.0985 40.8741 18.349C40.247 18.6052 39.6397 18.7092 39.0523 18.6613C38.465 18.6133 37.9299 18.434 37.4472 18.1233C36.963 17.8093 36.5671 17.3832 36.2594 16.8451L37.8271 16.2048C38.1147 16.6152 38.4735 16.8964 38.9035 17.0487C39.3356 17.1961 39.8035 17.1669 40.3072 16.9612C41.0783 16.6463 41.5425 16.0648 41.7 15.2168C41.856 14.3654 41.6887 13.3341 41.1981 12.123L41.1158 12.1566C41.058 12.5241 40.9388 12.8687 40.7583 13.1903C40.5812 13.5105 40.352 13.7961 40.0706 14.047C39.7892 14.2978 39.4618 14.4996 39.0882 14.6521C38.4817 14.8999 37.8691 14.9761 37.2504 14.8809C36.6318 14.7858 36.0687 14.5379 35.5613 14.1374C35.0538 13.7369 34.6636 13.2025 34.3907 12.5343C34.1192 11.8695 34.0236 11.2048 34.1041 10.5402C34.1879 9.87418 34.4379 9.27228 34.854 8.73447C35.2721 8.19184 35.8509 7.77349 36.5905 7.47942ZM37.1415 8.81378C36.7406 8.97753 36.4196 9.22457 36.1787 9.55489C35.9398 9.88039 35.7964 10.2488 35.7485 10.6602C35.6992 11.0682 35.7578 11.4761 35.9244 11.8839C36.0909 12.2917 36.3312 12.6254 36.6452 12.885C36.9611 13.1398 37.3149 13.3012 37.7066 13.3692C38.1002 13.4323 38.4992 13.3813 38.9036 13.2161C39.2051 13.093 39.4623 12.9199 39.6752 12.697C39.888 12.4742 40.0501 12.22 40.1615 11.9346C40.2715 11.6458 40.3274 11.3471 40.3293 11.0384C40.3311 10.7298 40.2726 10.4298 40.1536 10.1385C39.9955 9.75131 39.756 9.42929 39.4352 9.17247C39.1178 8.91425 38.7585 8.74913 38.3572 8.67711C37.9545 8.60167 37.5493 8.64722 37.1415 8.81378Z" fill="white"/>
<path d="M68.5532 16.4447L72.8529 5.91754L79.4529 8.61322L78.8945 9.98052L73.8828 7.93357L72.5727 11.1411L77.24 13.0474L76.6837 14.4095L72.0164 12.5032L70.7 15.7261L75.7734 17.7983L75.215 19.1656L68.5532 16.4447Z" fill="white"/>
<path d="M91.5598 20.7844C91.8691 20.3553 91.9617 19.8896 91.8377 19.3872C91.7161 18.8822 91.4141 18.4108 90.9315 17.973C90.5861 17.6597 90.2375 17.4434 89.8858 17.3243C89.5366 17.2024 89.2062 17.1726 88.8948 17.235C88.5886 17.297 88.3273 17.4474 88.111 17.6859C87.9294 17.886 87.8193 18.101 87.7807 18.3309C87.7449 18.5632 87.759 18.7984 87.823 19.0364C87.8922 19.2741 87.9861 19.5067 88.1046 19.7341C88.2256 19.9589 88.3497 20.1664 88.4769 20.3567L89.1054 21.3167C89.3144 21.6262 89.5091 21.9653 89.6895 22.3338C89.87 22.7024 89.9975 23.088 90.0721 23.4905C90.1468 23.8931 90.135 24.2972 90.0368 24.7029C89.9414 25.1111 89.7221 25.5044 89.3789 25.8828C88.9461 26.3598 88.4385 26.6715 87.856 26.8178C87.2763 26.9666 86.6563 26.9365 85.9963 26.7275C85.3389 26.5211 84.6813 26.1194 84.0233 25.5225C83.3927 24.9505 82.9379 24.3555 82.6588 23.7376C82.3798 23.1196 82.2767 22.5088 82.3495 21.9052C82.4248 21.2988 82.6787 20.7295 83.1114 20.1974L84.3863 21.3539C84.1349 21.6806 84.0036 22.0238 83.9923 22.3833C83.9862 22.7426 84.0741 23.0947 84.256 23.4397C84.4431 23.7843 84.6998 24.1046 85.026 24.4006C85.3852 24.7264 85.7556 24.9599 86.1372 25.1012C86.524 25.2422 86.8904 25.2846 87.2362 25.2285C87.5844 25.1696 87.8829 25.0031 88.1316 24.7289C88.358 24.4794 88.472 24.2105 88.4736 23.9221C88.4781 23.6363 88.4069 23.3318 88.2601 23.0088C88.1161 22.6882 87.9294 22.3514 87.6999 21.9983L86.9509 20.8241C86.4431 20.0286 86.1534 19.2736 86.0819 18.5591C86.0132 17.847 86.2449 17.1976 86.7772 16.6109C87.2174 16.1256 87.7332 15.8214 88.3247 15.6983C88.9162 15.5751 89.5275 15.6174 90.1587 15.8251C90.7924 16.0301 91.3916 16.3888 91.9564 16.9011C92.5267 17.4184 92.939 17.9749 93.1933 18.5704C93.4505 19.1685 93.546 19.7574 93.4799 20.3371C93.4162 20.9141 93.1847 21.4338 92.7853 21.8961L91.5598 20.7844Z" fill="white"/>
<path d="M99.732 28.1383L101.045 27.4624L105.073 35.2871L103.76 35.9631L102.136 32.8085L93.3387 37.337L92.556 35.8165L101.353 31.288L99.732 28.1383Z" fill="white"/>
<path d="M97.9969 55.6276L99.2348 55.7475L102.832 59.9617C103.223 60.4124 103.568 60.7861 103.867 61.0828C104.169 61.3835 104.461 61.6145 104.743 61.7757C105.025 61.9368 105.331 62.0335 105.663 62.0656C106.039 62.102 106.371 62.045 106.661 61.8945C106.955 61.7445 107.19 61.5236 107.367 61.2321C107.548 60.9409 107.656 60.6038 107.694 60.2206C107.733 59.8153 107.684 59.4536 107.548 59.1354C107.411 58.8172 107.2 58.5625 106.913 58.3711C106.627 58.1797 106.281 58.0644 105.876 58.0251L106.034 56.3948C106.723 56.4615 107.31 56.6783 107.795 57.0451C108.28 57.4119 108.638 57.8854 108.868 58.4655C109.102 59.046 109.184 59.6881 109.116 60.3918C109.047 61.1029 108.845 61.7155 108.509 62.2297C108.176 62.7478 107.751 63.1363 107.236 63.395C106.723 63.654 106.163 63.7541 105.555 63.6952C105.135 63.6546 104.732 63.5356 104.346 63.3382C103.959 63.1446 103.538 62.8304 103.082 62.3958C102.629 61.9614 102.086 61.3659 101.453 60.6091L99.3163 58.1318L99.2334 58.1238L98.7399 63.2193L97.2754 63.0774L97.9969 55.6276Z" fill="white"/>
<path d="M93.7276 73.2074C94.109 72.4174 94.6408 71.8407 95.323 71.4773C96.0051 71.1139 96.813 70.9726 97.7467 71.0534C98.6803 71.1342 99.7049 71.441 100.821 71.9737C101.933 72.5049 102.812 73.1074 103.459 73.7811C104.103 74.4582 104.499 75.1763 104.645 75.9352C104.79 76.6975 104.674 77.4712 104.3 78.2561C103.925 79.0411 103.395 79.6145 102.709 79.9762C102.027 80.3396 101.221 80.4817 100.29 80.4025C99.3618 80.3283 98.3414 80.0256 97.229 79.4944C96.1101 78.96 95.2257 78.3551 94.576 77.6798C93.9297 77.0061 93.5318 76.2889 93.3822 75.5283C93.236 74.7694 93.3511 73.9957 93.7276 73.2074ZM95.0654 73.8463C94.7336 74.5411 94.8134 75.2458 95.3049 75.9604C95.7947 76.6784 96.681 77.3436 97.9636 77.9562C98.8154 78.363 99.5783 78.6165 100.252 78.7169C100.928 78.8222 101.498 78.7804 101.961 78.5916C102.426 78.4076 102.768 78.0869 102.987 77.6292C103.317 76.9378 103.236 76.2323 102.742 75.5127C102.249 74.7932 101.364 74.1262 100.086 73.5119C99.2309 73.1036 98.4654 72.8467 97.7897 72.7414C97.1156 72.6411 96.5477 72.6836 96.0858 72.8692C95.6272 73.0563 95.2871 73.382 95.0654 73.8463Z" fill="white"/>
<path d="M85.5809 84.7768C86.2094 84.1648 86.9064 83.8047 87.6717 83.6965C88.437 83.5883 89.2445 83.7318 90.0942 84.1269C90.9439 84.5221 91.8019 85.1607 92.6681 86.0429C93.5318 86.9224 94.1521 87.7892 94.5291 88.6433C94.9034 89.5001 95.0296 90.31 94.9074 91.0733C94.7827 91.8391 94.4099 92.5267 93.7893 93.1362C93.1686 93.7456 92.4743 94.1031 91.7064 94.2087C90.9411 94.3169 90.1349 94.1748 89.2877 93.7823C88.4406 93.395 87.5851 92.7616 86.7215 91.8821C85.8527 90.9973 85.2285 90.1265 84.8489 89.2697C84.4719 88.4156 84.3432 87.6056 84.4627 86.8397C84.5848 86.0765 84.9576 85.3889 85.5809 84.7768ZM86.6196 85.8346C86.0702 86.3741 85.9043 87.0636 86.1217 87.9032C86.3365 88.7454 86.9419 89.6736 87.9378 90.6878C88.5991 91.3613 89.2293 91.8604 89.8284 92.1852C90.4274 92.5153 90.977 92.6708 91.4771 92.6518C91.9772 92.638 92.4082 92.4535 92.77 92.0982C93.3167 91.5613 93.4814 90.8705 93.264 90.0257C93.0466 89.1808 92.4425 88.2513 91.4519 87.2372C90.7879 86.561 90.1565 86.0579 89.5574 85.7279C88.9584 85.4031 88.4101 85.2489 87.9126 85.2653C87.4177 85.2843 86.9867 85.4741 86.6196 85.8346Z" fill="white"/>
<path d="M78.986 103.452C78.523 103.659 78.0298 103.781 77.5066 103.82C76.9834 103.859 76.4564 103.774 75.9257 103.564C75.3916 103.356 74.8717 102.982 74.3662 102.444C73.8588 101.91 73.3887 101.173 72.9558 100.231C72.5432 99.3247 72.2667 98.4765 72.1265 97.6862C71.9878 96.8993 71.9781 96.1858 72.0975 95.5457C72.2134 94.9072 72.4548 94.352 72.8214 93.8799C73.1881 93.4079 73.673 93.0346 74.276 92.76C74.8925 92.4793 75.4951 92.3513 76.084 92.376C76.6728 92.4007 77.2145 92.5587 77.7092 92.85C78.2053 93.1447 78.6178 93.5548 78.9466 94.0803L77.4053 94.7821C77.1018 94.3834 76.7321 94.1165 76.2964 93.9814C75.8589 93.8512 75.3925 93.8989 74.8973 94.1244C74.1393 94.4695 73.6984 95.0689 73.5746 95.9225C73.4524 96.7794 73.6603 97.8032 74.1984 98.9939L74.2793 98.9571C74.3225 98.5876 74.428 98.2386 74.5956 97.9101C74.7599 97.5831 74.9777 97.2887 75.2489 97.0269C75.5202 96.7651 75.8394 96.5506 76.2066 96.3834C76.8029 96.1119 77.412 96.0115 78.0339 96.0821C78.6559 96.1528 79.2283 96.3781 79.7512 96.7583C80.2741 97.1384 80.6851 97.6569 80.9842 98.3138C81.2818 98.9674 81.4036 99.6278 81.3495 100.295C81.292 100.964 81.0661 101.575 80.6716 102.129C80.2752 102.688 79.7134 103.129 78.986 103.452ZM78.3827 102.14C78.7768 101.961 79.0878 101.701 79.3155 101.362C79.5413 101.027 79.67 100.653 79.7016 100.24C79.7347 99.8305 79.66 99.4253 79.4775 99.0244C79.2949 98.6235 79.0416 98.2995 78.7177 98.0525C78.3918 97.8104 78.0319 97.6632 77.6379 97.6107C77.2421 97.5632 76.8454 97.63 76.4479 97.811C76.1515 97.946 75.9013 98.129 75.6974 98.3602C75.4936 98.5913 75.3416 98.8516 75.2417 99.1412C75.1432 99.4341 75.0991 99.7349 75.1095 100.043C75.1198 100.352 75.1901 100.649 75.3205 100.936C75.4939 101.316 75.7459 101.629 76.0766 101.873C76.404 102.118 76.7695 102.269 77.1734 102.325C77.5787 102.384 77.9818 102.323 78.3827 102.14Z" fill="white"/>
<path d="M56.2929 65.7071C56.6834 66.0976 57.3166 66.0976 57.7071 65.7071L64.0711 59.3431C64.4616 58.9526 64.4616 58.3195 64.0711 57.9289C63.6805 57.5384 63.0474 57.5384 62.6569 57.9289L57 63.5858L51.3431 57.9289C50.9526 57.5384 50.3195 57.5384 49.9289 57.9289C49.5384 58.3195 49.5384 58.9526 49.9289 59.3431L56.2929 65.7071ZM56 45L56 65L58 65L58 45L56 45Z" fill="white"/>
</svg>
