<svg width="28" height="28" viewBox="0 0 28 28" fill="none" xmlns="http://www.w3.org/2000/svg">
<path d="M24.4995 5.25H3.49951C3.26745 5.25 3.04489 5.34219 2.88079 5.50628C2.7167 5.67038 2.62451 5.89294 2.62451 6.125V21C2.62451 21.4641 2.80889 21.9092 3.13707 22.2374C3.46526 22.5656 3.91038 22.75 4.37451 22.75H23.6245C24.0886 22.75 24.5338 22.5656 24.8619 22.2374C25.1901 21.9092 25.3745 21.4641 25.3745 21V6.125C25.3745 5.89294 25.2823 5.67038 25.1182 5.50628C24.9541 5.34219 24.7316 5.25 24.4995 5.25ZM22.2497 7L13.9995 14.5633L5.74936 7H22.2497ZM23.6245 21H4.37451V8.11453L13.4078 16.3953C13.5692 16.5435 13.7804 16.6257 13.9995 16.6257C14.2186 16.6257 14.4298 16.5435 14.5912 16.3953L23.6245 8.11453V21Z" fill="#666666"/>
</svg>
