<svg width="28" height="28" viewBox="0 0 28 28" fill="none" xmlns="http://www.w3.org/2000/svg">
<path d="M19.8333 4.08321C19.8333 3.9285 19.7719 3.78013 19.6625 3.67073C19.5531 3.56134 19.4047 3.49988 19.25 3.49988H16.3333C14.8646 3.42672 13.4267 3.93784 12.3337 4.92156C11.2407 5.90528 10.5814 7.28162 10.5 8.74988V11.8999H7.58333C7.42862 11.8999 7.28025 11.9613 7.17085 12.0707C7.06146 12.1801 7 12.3285 7 12.4832V15.5165C7 15.6713 7.06146 15.8196 7.17085 15.929C7.28025 16.0384 7.42862 16.0999 7.58333 16.0999H10.5V23.9165C10.5 24.0713 10.5615 24.2196 10.6709 24.329C10.7803 24.4384 10.9286 24.4999 11.0833 24.4999H14.5833C14.738 24.4999 14.8864 24.4384 14.9958 24.329C15.1052 24.2196 15.1667 24.0713 15.1667 23.9165V16.0999H18.2233C18.3531 16.1017 18.4797 16.0603 18.5832 15.9821C18.6868 15.904 18.7613 15.7935 18.795 15.6682L19.635 12.6349C19.6582 12.5487 19.6613 12.4583 19.6441 12.3707C19.6269 12.2831 19.5898 12.2007 19.5357 12.1297C19.4816 12.0587 19.412 12.001 19.3321 11.9612C19.2522 11.9214 19.1643 11.9004 19.075 11.8999H15.1667V8.74988C15.1957 8.4611 15.3313 8.19351 15.547 7.99935C15.7628 7.8052 16.0431 7.69842 16.3333 7.69988H19.25C19.4047 7.69988 19.5531 7.63842 19.6625 7.52903C19.7719 7.41963 19.8333 7.27126 19.8333 7.11655V4.08321Z" fill="#444444"/>
</svg>
