<svg width="32" height="32" viewBox="0 0 32 32" fill="none" xmlns="http://www.w3.org/2000/svg">
<path d="M8 9.00043H12.975C13.3388 8.97918 19.6775 8.53293 25.7137 3.47043C26.0052 3.22562 26.3605 3.06908 26.7379 3.0192C27.1153 2.96932 27.4991 3.02817 27.8441 3.18883C28.1892 3.3495 28.4813 3.6053 28.6861 3.92621C28.8908 4.24711 28.9997 4.61978 29 5.00043V25.0004C28.9999 25.3812 28.8912 25.754 28.6866 26.0751C28.4819 26.3962 28.1898 26.6522 27.8447 26.813C27.4996 26.9738 27.1157 27.0328 26.7382 26.983C26.3607 26.9331 26.0053 26.7766 25.7137 26.5317C20.9925 22.5717 16.0887 21.4367 14 21.1192V25.0842C14.0004 25.4137 13.9194 25.7383 13.7641 26.029C13.6088 26.3197 13.3841 26.5675 13.11 26.7504L11.735 27.6667C11.4692 27.8441 11.1648 27.9552 10.8473 27.9908C10.5297 28.0263 10.2083 27.9853 9.90987 27.8711C9.61145 27.7569 9.34473 27.5728 9.13206 27.3344C8.91938 27.0959 8.76694 26.8099 8.6875 26.5004L7.21625 20.9554C5.69533 20.7686 4.30353 20.0069 3.32631 18.8266C2.34908 17.6463 1.86049 16.1368 1.96073 14.6077C2.06097 13.0786 2.74246 11.6458 3.86542 10.6032C4.98837 9.56059 6.4677 8.98712 8 9.00043ZM10.625 25.9867V26.0004L12 25.0842V21.0004H9.3L10.625 25.9867ZM8 19.0004H12V11.0004H8C6.93913 11.0004 5.92172 11.4219 5.17157 12.172C4.42143 12.9222 4 13.9396 4 15.0004C4 16.0613 4.42143 17.0787 5.17157 17.8289C5.92172 18.579 6.93913 19.0004 8 19.0004Z" fill="black"/>
</svg>
