<svg width="33" height="32" viewBox="0 0 33 32" fill="none" xmlns="http://www.w3.org/2000/svg">
<path d="M27.3333 5H5.33325C4.80282 5 4.29411 5.21071 3.91904 5.58579C3.54397 5.96086 3.33325 6.46957 3.33325 7V25C3.33325 25.5304 3.54397 26.0391 3.91904 26.4142C4.29411 26.7893 4.80282 27 5.33325 27H27.3333C27.8637 27 28.3724 26.7893 28.7475 26.4142C29.1225 26.0391 29.3333 25.5304 29.3333 25V7C29.3333 6.46957 29.1225 5.96086 28.7475 5.58579C28.3724 5.21071 27.8637 5 27.3333 5ZM27.3333 7V11H5.33325V7H27.3333Z" fill="black"/>
</svg>
