<svg width="32" height="32" viewBox="0 0 32 32" fill="none" xmlns="http://www.w3.org/2000/svg">
<path d="M28.925 5.54291C28.925 5.54291 28.925 5.55541 28.925 5.56166L21.65 29.5542C21.5399 29.9438 21.3132 30.2905 21.0004 30.5477C20.6876 30.8049 20.3036 30.9602 19.9 30.9929C19.8425 30.9979 19.785 31.0004 19.7275 31.0004C19.3492 31.0016 18.9785 30.8945 18.6592 30.6919C18.3398 30.4892 18.085 30.1994 17.925 29.8567L13.4612 20.4329C13.4172 20.3397 13.403 20.2351 13.4207 20.1335C13.4384 20.0319 13.487 19.9383 13.56 19.8654L20.7175 12.7067C20.8971 12.5176 20.9958 12.2658 20.9924 12.0051C20.9891 11.7443 20.884 11.4952 20.6996 11.3108C20.5152 11.1264 20.2661 11.0213 20.0053 11.018C19.7446 11.0146 19.4928 11.1133 19.3037 11.2929L12.135 18.4504C12.0621 18.5234 11.9685 18.572 11.8669 18.5897C11.7653 18.6074 11.6607 18.5932 11.5675 18.5492L2.19249 14.1079C1.8243 13.9392 1.51444 13.6651 1.30216 13.3202C1.08987 12.9753 0.984714 12.5751 0.999992 12.1704C1.02035 11.7544 1.17094 11.3554 1.43047 11.0297C1.69 10.704 2.04533 10.4681 2.44624 10.3554L26.4387 3.08041H26.4575C26.7991 2.98443 27.1601 2.98107 27.5034 3.07066C27.8468 3.16025 28.1601 3.33956 28.4112 3.59021C28.6624 3.84086 28.8423 4.15381 28.9326 4.49696C29.0229 4.84012 29.0203 5.20111 28.925 5.54291Z" fill="black"/>
</svg>
