<svg width="33" height="32" viewBox="0 0 33 32" fill="none" xmlns="http://www.w3.org/2000/svg">
<g clip-path="url(#clip0_0_1278)">
<path d="M22.6662 25.9048C23.356 25.633 24.0245 25.3101 24.6662 24.9386V29.9998C24.6662 30.2651 24.5608 30.5194 24.3733 30.7069C24.1858 30.8945 23.9314 30.9998 23.6662 30.9998C23.401 30.9998 23.1466 30.8945 22.9591 30.7069C22.7715 30.5194 22.6662 30.2651 22.6662 29.9998V25.9048ZM24.1362 14.8511L17.1362 11.1173C16.9026 10.998 16.6316 10.9753 16.3814 11.0539C16.1312 11.1326 15.922 11.3064 15.7987 11.5378C15.6754 11.7693 15.648 12.0399 15.7224 12.2914C15.7967 12.5429 15.9669 12.7551 16.1962 12.8823L22.0412 15.9998L24.1662 14.8673L24.1362 14.8511ZM32.1362 11.1173L17.1362 3.11733C16.9915 3.04029 16.8301 3 16.6662 3C16.5023 3 16.3409 3.04029 16.1962 3.11733L1.19619 11.1173C1.0362 11.2026 0.902392 11.3298 0.809091 11.4852C0.715791 11.6407 0.666504 11.8185 0.666504 11.9998C0.666504 12.1811 0.715791 12.359 0.809091 12.5145C0.902392 12.6699 1.0362 12.7971 1.19619 12.8823L4.66619 14.7336V20.7861C4.66515 21.2773 4.84593 21.7515 5.17369 22.1173C6.81119 23.9411 10.4799 26.9998 16.6662 26.9998C18.7174 27.0168 20.7532 26.6453 22.6662 25.9048V16.3336L22.0412 15.9998L16.6662 18.8661L6.14494 13.2498L3.79119 11.9998L16.6662 5.13358L29.5412 11.9998L27.1937 13.2498H27.1862L24.1662 14.8673C24.3182 14.9551 24.4445 15.0814 24.5323 15.2335C24.62 15.3855 24.6662 15.558 24.6662 15.7336V24.9386C25.9702 24.1858 27.1486 23.2339 28.1587 22.1173C28.4865 21.7515 28.6672 21.2773 28.6662 20.7861V14.7336L32.1362 12.8823C32.2962 12.7971 32.43 12.6699 32.5233 12.5145C32.6166 12.359 32.6659 12.1811 32.6659 11.9998C32.6659 11.8185 32.6166 11.6407 32.5233 11.4852C32.43 11.3298 32.2962 11.2026 32.1362 11.1173Z" fill="black"/>
</g>
<defs>
<clipPath id="clip0_0_1278">
<rect width="32" height="32" fill="white" transform="translate(0.666504)"/>
</clipPath>
</defs>
</svg>
