<svg width="32" height="32" viewBox="0 0 32 32" fill="none" xmlns="http://www.w3.org/2000/svg">
<path d="M27 5.00049H9C8.46957 5.00049 7.96086 5.2112 7.58579 5.58627C7.21071 5.96135 7 6.47006 7 7.00049V9.00049H5C4.46957 9.00049 3.96086 9.2112 3.58579 9.58628C3.21071 9.96135 3 10.4701 3 11.0005V25.0005C3 25.5309 3.21071 26.0396 3.58579 26.4147C3.96086 26.7898 4.46957 27.0005 5 27.0005H23C23.5304 27.0005 24.0391 26.7898 24.4142 26.4147C24.7893 26.0396 25 25.5309 25 25.0005V23.0005H27C27.5304 23.0005 28.0391 22.7898 28.4142 22.4147C28.7893 22.0396 29 21.5309 29 21.0005V7.00049C29 6.47006 28.7893 5.96135 28.4142 5.58627C28.0391 5.2112 27.5304 5.00049 27 5.00049ZM21.5 9.00049C21.7967 9.00049 22.0867 9.08846 22.3334 9.25328C22.58 9.41811 22.7723 9.65237 22.8858 9.92646C22.9993 10.2006 23.0291 10.5022 22.9712 10.7931C22.9133 11.0841 22.7704 11.3514 22.5607 11.5611C22.3509 11.7709 22.0836 11.9138 21.7926 11.9717C21.5017 12.0295 21.2001 11.9998 20.926 11.8863C20.6519 11.7728 20.4176 11.5805 20.2528 11.3338C20.088 11.0872 20 10.7972 20 10.5005C20 10.1027 20.158 9.72113 20.4393 9.43983C20.7206 9.15852 21.1022 9.00049 21.5 9.00049ZM23 25.0005H5V11.0005H7V21.0005C7 21.5309 7.21071 22.0396 7.58579 22.4147C7.96086 22.7898 8.46957 23.0005 9 23.0005H23V25.0005ZM27 21.0005H9V16.5005L13.5 12.0005L19.7075 18.208C19.895 18.3954 20.1493 18.5007 20.4144 18.5007C20.6795 18.5007 20.9337 18.3954 21.1213 18.208L24.3288 15.0005L27 17.673V21.0005Z" fill="black"/>
</svg>
