<svg width="33" height="32" viewBox="0 0 33 32" fill="none" xmlns="http://www.w3.org/2000/svg">
<path d="M30.6665 12V22C30.6665 22.2652 30.5611 22.5196 30.3736 22.7071C30.1861 22.8946 29.9317 23 29.6665 23H25.6665V27C25.6665 27.2652 25.5611 27.5196 25.3736 27.7071C25.1861 27.8946 24.9317 28 24.6665 28H8.6665C8.40129 28 8.14693 27.8946 7.9594 27.7071C7.77186 27.5196 7.6665 27.2652 7.6665 27V23H3.6665C3.40129 23 3.14693 22.8946 2.9594 22.7071C2.77186 22.5196 2.6665 22.2652 2.6665 22V12C2.6665 10.3463 4.0865 9 5.83275 9H7.6665V5C7.6665 4.73478 7.77186 4.48043 7.9594 4.29289C8.14693 4.10536 8.40129 4 8.6665 4H24.6665C24.9317 4 25.1861 4.10536 25.3736 4.29289C25.5611 4.48043 25.6665 4.73478 25.6665 5V9H27.5003C29.2465 9 30.6665 10.3463 30.6665 12ZM9.6665 9H23.6665V6H9.6665V9ZM23.6665 20H9.6665V26H23.6665V20ZM25.6665 14.5C25.6665 14.2033 25.5785 13.9133 25.4137 13.6666C25.2489 13.42 25.0146 13.2277 24.7405 13.1142C24.4664 13.0006 24.1648 12.9709 23.8739 13.0288C23.5829 13.0867 23.3156 13.2296 23.1058 13.4393C22.8961 13.6491 22.7532 13.9164 22.6953 14.2074C22.6374 14.4983 22.6672 14.7999 22.7807 15.074C22.8942 15.3481 23.0865 15.5824 23.3331 15.7472C23.5798 15.912 23.8698 16 24.1665 16C24.5643 16 24.9459 15.842 25.2272 15.5607C25.5085 15.2794 25.6665 14.8978 25.6665 14.5Z" fill="black"/>
</svg>
