<svg width="33" height="32" viewBox="0 0 33 32" fill="none" xmlns="http://www.w3.org/2000/svg">
<path d="M26.3333 10H22.3333V7C22.3333 5.4087 21.7011 3.88258 20.5759 2.75736C19.4507 1.63214 17.9246 1 16.3333 1C14.742 1 13.2158 1.63214 12.0906 2.75736C10.9654 3.88258 10.3333 5.4087 10.3333 7V10H6.33325C5.80282 10 5.29411 10.2107 4.91904 10.5858C4.54397 10.9609 4.33325 11.4696 4.33325 12V26C4.33325 26.5304 4.54397 27.0391 4.91904 27.4142C5.29411 27.7893 5.80282 28 6.33325 28H26.3333C26.8637 28 27.3724 27.7893 27.7475 27.4142C28.1225 27.0391 28.3333 26.5304 28.3333 26V12C28.3333 11.4696 28.1225 10.9609 27.7475 10.5858C27.3724 10.2107 26.8637 10 26.3333 10ZM17.3333 19.8288V23C17.3333 23.2652 17.2279 23.5196 17.0404 23.7071C16.8528 23.8946 16.5985 24 16.3333 24C16.068 24 15.8137 23.8946 15.6261 23.7071C15.4386 23.5196 15.3333 23.2652 15.3333 23V19.8288C14.666 19.5929 14.1037 19.1287 13.7456 18.5183C13.3875 17.9079 13.2568 17.1905 13.3765 16.493C13.4961 15.7955 13.8585 15.1628 14.3996 14.7066C14.9407 14.2505 15.6256 14.0003 16.3333 14.0003C17.0409 14.0003 17.7258 14.2505 18.2669 14.7066C18.808 15.1628 19.1704 15.7955 19.29 16.493C19.4097 17.1905 19.279 17.9079 18.9209 18.5183C18.5628 19.1287 18.0005 19.5929 17.3333 19.8288ZM20.3333 10H12.3333V7C12.3333 5.93913 12.7547 4.92172 13.5048 4.17157C14.255 3.42143 15.2724 3 16.3333 3C17.3941 3 18.4115 3.42143 19.1617 4.17157C19.9118 4.92172 20.3333 5.93913 20.3333 7V10Z" fill="black"/>
</svg>
