<svg width="32" height="32" viewBox="0 0 32 32" fill="none" xmlns="http://www.w3.org/2000/svg">
<path d="M29.25 10.0155C28.9684 9.69639 28.6222 9.44086 28.2342 9.26586C27.8463 9.09086 27.4256 9.0004 27 9.00049H20V7.00049C20 5.67441 19.4732 4.40264 18.5355 3.46495C17.5979 2.52727 16.3261 2.00049 15 2.00049C14.8142 2.00036 14.6321 2.05198 14.474 2.14957C14.3159 2.24715 14.1881 2.38685 14.105 2.55299L9.3825 12.0005H4C3.46957 12.0005 2.96086 12.2112 2.58579 12.5863C2.21071 12.9613 2 13.4701 2 14.0005V25.0005C2 25.5309 2.21071 26.0396 2.58579 26.4147C2.96086 26.7898 3.46957 27.0005 4 27.0005H25.5C26.2309 27.0007 26.9367 26.7342 27.485 26.2508C28.0332 25.7675 28.3861 25.1006 28.4775 24.3755L29.9775 12.3755C30.0307 11.953 29.9933 11.5241 29.8679 11.1172C29.7424 10.7102 29.5318 10.3347 29.25 10.0155ZM4 14.0005H9V25.0005H4V14.0005Z" fill="black"/>
</svg>
