<svg width="28" height="28" viewBox="0 0 28 28" fill="none" xmlns="http://www.w3.org/2000/svg">
<path d="M17.6741 9.79991C16.7799 9.79684 15.8939 9.97012 15.0668 10.3098C14.2396 10.6495 13.4876 11.149 12.8537 11.7797C12.2197 12.4103 11.7164 13.1598 11.3724 13.9852C11.0285 14.8106 10.8506 15.6957 10.8491 16.5899V23.4499C10.8491 23.7284 10.9597 23.9955 11.1567 24.1924C11.3536 24.3893 11.6206 24.4999 11.8991 24.4999H14.3491C14.6276 24.4999 14.8947 24.3893 15.0916 24.1924C15.2885 23.9955 15.3991 23.7284 15.3991 23.4499V16.5899C15.3989 16.2719 15.4657 15.9574 15.5952 15.6669C15.7246 15.3764 15.9139 15.1165 16.1505 14.904C16.3872 14.6916 16.666 14.5314 16.9687 14.4339C17.2714 14.3364 17.5913 14.3038 17.9075 14.3382C18.4745 14.4097 18.9955 14.6867 19.3719 15.1168C19.7482 15.5469 19.9536 16.1001 19.9491 16.6716V23.4499C19.9491 23.7284 20.0597 23.9955 20.2567 24.1924C20.4536 24.3893 20.7206 24.4999 20.9991 24.4999H23.4491C23.7276 24.4999 23.9947 24.3893 24.1916 24.1924C24.3885 23.9955 24.4991 23.7284 24.4991 23.4499V16.5899C24.4976 15.6957 24.3198 14.8106 23.9758 13.9852C23.6318 13.1598 23.1285 12.4103 22.4946 11.7797C21.8607 11.149 21.1086 10.6495 20.2815 10.3098C19.4543 9.97012 18.5683 9.79684 17.6741 9.79991Z" fill="#444444"/>
<path d="M7.69902 10.8499H4.54902C3.96912 10.8499 3.49902 11.32 3.49902 11.8999V23.4499C3.49902 24.0298 3.96912 24.4999 4.54902 24.4999H7.69902C8.27892 24.4999 8.74902 24.0298 8.74902 23.4499V11.8999C8.74902 11.32 8.27892 10.8499 7.69902 10.8499Z" fill="#444444"/>
<path d="M6.12402 8.75037C7.57377 8.75037 8.74902 7.57511 8.74902 6.12537C8.74902 4.67562 7.57377 3.50037 6.12402 3.50037C4.67428 3.50037 3.49902 4.67562 3.49902 6.12537C3.49902 7.57511 4.67428 8.75037 6.12402 8.75037Z" fill="#444444"/>
</svg>
