<svg width="64" height="64" viewBox="0 0 64 64" fill="none" xmlns="http://www.w3.org/2000/svg">
<rect width="64" height="64" rx="16" fill="#EEEEEE"/>
<path d="M36.1994 27.2002C35.1775 27.1967 34.1649 27.3948 33.2196 27.783C32.2743 28.1713 31.4148 28.7421 30.6903 29.4628C29.9658 30.1836 29.3906 31.0401 28.9975 31.9834C28.6044 32.9267 28.4012 33.9383 28.3994 34.9602V42.8002C28.3994 43.1185 28.5258 43.4237 28.7509 43.6488C28.9759 43.8738 29.2812 44.0002 29.5994 44.0002H32.3994C32.7177 44.0002 33.0229 43.8738 33.2479 43.6488C33.473 43.4237 33.5994 43.1185 33.5994 42.8002V34.9602C33.5992 34.5968 33.6755 34.2373 33.8235 33.9054C33.9714 33.5734 34.1877 33.2763 34.4582 33.0335C34.7286 32.7907 35.0472 32.6076 35.3932 32.4962C35.7392 32.3848 36.1048 32.3476 36.4661 32.3869C37.1141 32.4685 37.7096 32.7851 38.1397 33.2767C38.5698 33.7682 38.8045 34.4005 38.7994 35.0536V42.8002C38.7994 43.1185 38.9258 43.4237 39.1509 43.6488C39.3759 43.8738 39.6812 44.0002 39.9994 44.0002H42.7994C43.1177 44.0002 43.4229 43.8738 43.6479 43.6488C43.873 43.4237 43.9994 43.1185 43.9994 42.8002V34.9602C43.9977 33.9383 43.7944 32.9267 43.4013 31.9834C43.0082 31.0401 42.433 30.1836 41.7085 29.4628C40.984 28.7421 40.1246 28.1713 39.1792 27.783C38.2339 27.3948 37.2213 27.1967 36.1994 27.2002Z" fill="#222222"/>
<path d="M24.8 28.3999H21.2C20.5373 28.3999 20 28.9372 20 29.5999V42.7999C20 43.4626 20.5373 43.9999 21.2 43.9999H24.8C25.4627 43.9999 26 43.4626 26 42.7999V29.5999C26 28.9372 25.4627 28.3999 24.8 28.3999Z" fill="#222222"/>
<path d="M23 26C24.6569 26 26 24.6569 26 23C26 21.3431 24.6569 20 23 20C21.3431 20 20 21.3431 20 23C20 24.6569 21.3431 26 23 26Z" fill="#222222"/>
</svg>
