<svg width="38" height="32" viewBox="0 0 38 32" fill="none" xmlns="http://www.w3.org/2000/svg">
<path d="M33.2366 16C33.2366 16.2652 33.1124 16.5196 32.8913 16.7071C32.6702 16.8946 32.3704 17 32.0577 17H20.2684V27C20.2684 27.2652 20.1442 27.5196 19.9231 27.7071C19.702 27.8946 19.4022 28 19.0895 28C18.7768 28 18.477 27.8946 18.2559 27.7071C18.0348 27.5196 17.9106 27.2652 17.9106 27V17H6.12131C5.80864 17 5.50877 16.8946 5.28768 16.7071C5.06659 16.5196 4.94238 16.2652 4.94238 16C4.94238 15.7348 5.06659 15.4804 5.28768 15.2929C5.50877 15.1054 5.80864 15 6.12131 15H17.9106V5C17.9106 4.73478 18.0348 4.48043 18.2559 4.29289C18.477 4.10536 18.7768 4 19.0895 4C19.4022 4 19.702 4.10536 19.9231 4.29289C20.1442 4.48043 20.2684 4.73478 20.2684 5V15H32.0577C32.3704 15 32.6702 15.1054 32.8913 15.2929C33.1124 15.4804 33.2366 15.7348 33.2366 16Z" fill="#666666"/>
</svg>
