<svg width="28" height="28" viewBox="0 0 28 28" fill="none" xmlns="http://www.w3.org/2000/svg">
<path d="M9.42733 23.3329C11.1525 23.3907 12.8717 23.102 14.4834 22.484C16.095 21.8659 17.5665 20.9311 18.8107 19.7347C20.0549 18.5383 21.0467 17.1047 21.7275 15.5185C22.4082 13.9323 22.764 12.2257 22.774 10.4996C23.5646 9.52125 24.1516 8.39474 24.5007 7.18627C24.5267 7.09079 24.5246 6.98982 24.4946 6.89551C24.4646 6.8012 24.408 6.71757 24.3315 6.6547C24.2551 6.59182 24.1621 6.55239 24.0638 6.54113C23.9655 6.52988 23.866 6.54729 23.7773 6.59127C23.3637 6.79037 22.8981 6.85468 22.446 6.77514C21.9939 6.69561 21.5781 6.47624 21.2573 6.14794C20.8478 5.69945 20.3524 5.33772 19.8004 5.0842C19.2485 4.83068 18.6513 4.69052 18.0443 4.67203C17.4372 4.65353 16.8326 4.75708 16.2663 4.97653C15.6999 5.19598 15.1834 5.52688 14.7473 5.9496C14.1502 6.52787 13.7129 7.25078 13.4778 8.04806C13.2427 8.84534 13.2178 9.68988 13.4057 10.4996C9.49732 10.7329 6.81399 8.87794 4.66733 6.3346C4.60284 6.26157 4.51848 6.2089 4.42455 6.18302C4.33062 6.15714 4.23118 6.15917 4.13839 6.18886C4.04559 6.21856 3.96345 6.27463 3.902 6.35023C3.84054 6.42584 3.80244 6.5177 3.79233 6.6146C3.38337 8.8831 3.67838 11.2224 4.63771 13.3184C5.59705 15.4143 7.17478 17.1665 9.15899 18.3396C7.82857 19.8654 5.96024 20.8184 3.94399 20.9996C3.83597 21.0175 3.73626 21.0688 3.6588 21.1461C3.58135 21.2235 3.53003 21.3232 3.51203 21.4312C3.49403 21.5392 3.51024 21.6502 3.55841 21.7485C3.60658 21.8468 3.68429 21.9276 3.78066 21.9796C5.53477 22.8562 7.46643 23.3192 9.42733 23.3329Z" fill="#444444"/>
</svg>
