<svg width="64" height="64" viewBox="0 0 64 64" fill="none" xmlns="http://www.w3.org/2000/svg">
<rect width="64" height="64" rx="16" fill="#EEEEEE"/>
<path d="M26.956 42.6666C28.9276 42.7325 30.8924 42.4026 32.7343 41.6963C34.5762 40.99 36.2579 39.9216 37.6799 38.5543C39.1019 37.187 40.2353 35.5486 41.0133 33.7357C41.7913 31.9229 42.198 29.9726 42.2093 27.9999C43.1129 26.8818 43.7838 25.5943 44.1827 24.2132C44.2124 24.1041 44.21 23.9887 44.1758 23.8809C44.1415 23.7731 44.0767 23.6776 43.9894 23.6057C43.902 23.5339 43.7958 23.4888 43.6834 23.4759C43.571 23.4631 43.4573 23.483 43.356 23.5332C42.8833 23.7608 42.3511 23.8343 41.8345 23.7434C41.3178 23.6525 40.8427 23.4018 40.476 23.0266C40.0079 22.514 39.4418 22.1006 38.811 21.8109C38.1802 21.5211 37.4977 21.3609 36.8039 21.3398C36.1101 21.3187 35.4192 21.437 34.7719 21.6878C34.1247 21.9386 33.5344 22.3168 33.036 22.7999C32.3536 23.4608 31.8538 24.287 31.5851 25.1981C31.3164 26.1093 31.288 27.0745 31.5027 27.9999C27.036 28.2666 23.9693 26.1466 21.516 23.2399C21.4423 23.1564 21.3459 23.0962 21.2385 23.0667C21.1312 23.0371 21.0176 23.0394 20.9115 23.0733C20.8055 23.1073 20.7116 23.1714 20.6413 23.2578C20.5711 23.3442 20.5276 23.4491 20.516 23.5599C20.0486 26.1525 20.3858 28.826 21.4822 31.2213C22.5785 33.6167 24.3817 35.6192 26.6493 36.9599C25.1289 38.7037 22.9936 39.7928 20.6893 39.9999C20.5659 40.0204 20.4519 40.0789 20.3634 40.1674C20.2749 40.2558 20.2162 40.3697 20.1957 40.4932C20.1751 40.6166 20.1936 40.7434 20.2487 40.8558C20.3037 40.9681 20.3925 41.0605 20.5027 41.1199C22.5074 42.1217 24.715 42.6508 26.956 42.6666Z" fill="#222222"/>
</svg>
